<?xml version="1.0" standalone="no"?>
<!DOCTYPE svg PUBLIC "-//W3C//DTD SVG 20010904//EN"
 "http://www.w3.org/TR/2001/REC-SVG-20010904/DTD/svg10.dtd">
<svg version="1.0" xmlns="http://www.w3.org/2000/svg"
 width="480.000000pt" height="486.000000pt" viewBox="0 0 480.000000 486.000000"
 preserveAspectRatio="xMidYMid meet">
<metadata>
Created by potrace 1.13, written by Peter Selinger 2001-2015
</metadata>
<g transform="translate(0.000000,486.000000) scale(0.100000,-0.100000)"
fill="#000000" stroke="none">
<path d="M3852 4507 c-39 -22 -53 -50 -41 -88 5 -19 9 -111 8 -206 -2 -182 2
-203 44 -203 89 0 157 164 157 381 l0 89 -32 20 c-37 23 -101 26 -136 7z"/>
<path d="M3094 4142 c-6 -4 -20 -111 -33 -247 -12 -132 -25 -254 -27 -272 l-6
-31 99 0 c55 0 116 -5 136 -11 53 -18 73 -7 91 46 37 107 11 335 -50 438 -40
69 -66 85 -138 85 -33 0 -66 -4 -72 -8z"/>
<path d="M2561 4066 c-63 -11 -116 -26 -118 -31 -2 -6 42 -112 98 -235 55
-124 105 -234 109 -246 l8 -21 92 17 c50 10 93 20 94 22 6 7 -151 512 -160
514 -5 1 -60 -8 -123 -20z"/>
<path d="M2205 3995 c-5 -2 -65 -18 -132 -36 -68 -17 -123 -36 -123 -41 0 -10
187 -528 192 -533 2 -2 32 6 67 18 l63 22 -6 240 c-8 295 -12 335 -34 334 -10
0 -21 -2 -27 -4z"/>
<path d="M1557 3728 c-41 -56 -59 -124 -64 -253 -9 -210 32 -319 166 -448 82
-78 227 -190 338 -262 35 -22 63 -43 63 -47 0 -5 -26 -43 -58 -86 -83 -113
-147 -225 -178 -317 -24 -71 -28 -99 -32 -247 -5 -194 11 -315 62 -470 100
-299 295 -434 557 -386 293 54 524 280 600 588 31 124 24 288 -20 421 -51 158
-167 366 -293 527 l-49 63 83 162 c52 100 83 171 80 185 -4 28 -10 28 -46 -5
-21 -20 -18 -13 12 23 48 59 51 68 21 59 -27 -9 -25 -5 64 108 38 48 67 92 65
98 -2 6 -61 -38 -132 -98 -221 -186 -220 -185 24 79 52 56 77 87 54 68 -23
-19 -138 -119 -257 -222 -120 -104 -220 -188 -223 -188 -3 0 -26 18 -51 39
-58 52 -204 151 -269 184 -27 14 -56 33 -63 41 -8 9 -107 106 -221 216 l-208
201 -25 -33z m930 -1297 c106 -82 199 -180 233 -247 19 -38 25 -64 25 -116 0
-58 -4 -72 -30 -110 -36 -50 -130 -117 -212 -149 -77 -30 -241 -33 -290 -7
-114 63 -123 215 -24 412 51 99 179 286 198 286 6 0 51 -31 100 -69z"/>
<path d="M3046 1061 c-3 -4 -28 -11 -56 -15 -41 -6 -51 -10 -48 -24 2 -10 11
-16 22 -14 14 3 16 -1 12 -16 -16 -49 -26 -146 -26 -248 0 -90 -3 -113 -15
-118 -8 -3 -15 -13 -15 -22 0 -14 7 -16 37 -11 44 8 64 24 44 37 -14 8 -11 75
14 348 1 12 7 28 13 34 9 9 12 0 12 -37 1 -74 17 -187 42 -288 21 -85 38 -111
59 -90 24 24 127 409 113 423 -9 9 -21 -22 -44 -109 -33 -127 -61 -214 -66
-208 -3 2 -14 58 -25 123 -30 181 -56 263 -73 235z"/>
<path d="M2145 1028 c-10 -62 -35 -328 -35 -378 0 -43 3 -52 23 -59 31 -12 43
15 59 135 l14 99 32 3 c43 4 43 30 0 34 l-33 3 -3 73 -3 72 51 0 c51 0 61 8
35 30 -9 8 -28 10 -55 5 -26 -4 -40 -3 -40 4 0 6 -9 11 -20 11 -14 0 -21 -9
-25 -32z"/>
<path d="M1011 1041 c-21 -14 -3 -31 32 -31 l32 0 -3 -183 c-2 -115 1 -194 8
-212 10 -27 12 -27 28 -11 15 14 17 39 17 179 0 89 -3 177 -7 195 -7 32 -7 32
31 32 l39 0 -6 -189 c-5 -206 -2 -241 27 -241 26 0 32 20 38 133 l6 97 28 0
29 0 0 -110 c0 -101 2 -110 19 -110 24 0 29 25 37 193 8 166 0 247 -25 247
-22 0 -31 -36 -31 -115 0 -46 -3 -53 -22 -58 -12 -3 -25 -4 -28 -2 -4 2 -10
40 -13 83 -9 118 -3 112 -121 112 -55 0 -107 -4 -115 -9z"/>
<path d="M1455 1041 l-50 -6 -8 -45 c-10 -57 -14 -386 -5 -395 12 -12 141 9
146 24 4 11 -6 12 -48 6 l-53 -7 6 68 c4 38 7 81 7 97 0 19 5 27 18 27 10 0
27 7 38 15 18 14 17 14 -15 15 l-34 0 7 61 c3 34 6 75 6 90 0 25 4 28 37 31
20 2 38 9 41 16 4 13 -7 13 -93 3z"/>
<path d="M1753 1039 c-23 -23 -14 -28 19 -12 70 35 110 -37 73 -132 -8 -24
-25 -51 -36 -61 -17 -16 -22 -16 -29 -4 -14 22 -12 34 16 105 15 36 25 68 23
70 -7 7 -37 -21 -63 -59 -28 -42 -33 -85 -14 -116 10 -16 9 -23 -9 -42 -29
-31 -43 -71 -43 -121 0 -48 6 -59 37 -76 35 -18 51 -13 99 31 82 75 111 173
67 220 -19 21 -20 25 -8 48 22 39 19 113 -5 135 -25 23 -110 32 -127 14z m117
-241 c0 -23 -50 -120 -83 -162 -16 -20 -29 -27 -40 -23 -23 9 -22 54 4 122 32
86 119 132 119 63z"/>
<path d="M2392 1043 c-47 -4 -54 -7 -64 -31 -13 -34 -22 -392 -10 -410 13 -19
142 -5 142 15 0 11 -10 13 -45 7 l-45 -6 0 49 c0 28 3 71 6 96 6 40 10 46 35
51 38 7 37 26 -1 26 -29 0 -31 2 -26 33 3 17 8 58 11 90 l6 57 35 0 c24 0 34
5 34 15 0 8 -6 14 -12 13 -7 -1 -37 -3 -66 -5z"/>
<path d="M2542 1025 c-54 -69 -32 -145 71 -240 38 -36 68 -67 66 -68 -2 -2
-38 -19 -80 -39 -68 -32 -77 -34 -87 -19 -10 14 -12 14 -21 1 -6 -8 -11 -27
-11 -42 0 -25 4 -28 33 -28 42 0 150 53 177 87 35 45 27 70 -49 142 -76 72
-89 101 -71 155 15 47 42 47 86 1 18 -19 35 -35 38 -35 17 0 2 44 -25 75 -40
45 -96 50 -127 10z"/>
<path d="M2711 1041 c-21 -14 -3 -31 32 -31 l32 0 0 -200 c0 -146 3 -202 13
-212 9 -9 15 -9 25 1 9 9 12 65 12 211 l0 199 50 3 c38 2 51 7 53 21 3 15 -7
17 -100 17 -57 0 -109 -4 -117 -9z"/>
<path d="M3414 1042 c-31 -20 -159 -332 -171 -417 -8 -58 0 -79 26 -66 12 7
37 57 66 131 46 118 68 149 100 136 8 -3 18 -39 25 -95 10 -68 17 -91 28 -91
12 0 13 13 8 83 -9 101 -35 273 -47 304 -9 24 -17 27 -35 15z"/>
<path d="M3514 1025 c-3 -13 -4 -118 -2 -232 l4 -208 83 -3 c52 -2 88 1 97 9
24 20 5 29 -64 29 l-67 0 0 177 c0 98 -4 195 -8 216 -9 43 -33 50 -43 12z"/>
</g>
</svg>
